Coordinates
version=1
nRows=9
nColumns=36
inDegrees=yes

Units are S.I. units (second, meters, Newtons, ...)
If the header above contains a line with 'inDegrees', this indicates whether rotational values are in degrees (yes) or radians (no).

endheader
time	pelvis_tilt	pelvis_list	pelvis_rotation	pelvis_tx	pelvis_ty	pelvis_tz	hip_flexion_r	hip_adduction_r	hip_rotation_r	knee_angle_r	knee_angle_r_beta	ankle_angle_r	subtalar_angle_r	mtp_angle_r	hip_flexion_l	hip_adduction_l	hip_rotation_l	knee_angle_l	knee_angle_l_beta	ankle_angle_l	subtalar_angle_l	mtp_angle_l	lumbar_extension	lumbar_bending	lumbar_rotation	arm_flex_r	arm_add_r	arm_rot_r	elbow_flex_r	pro_sup_r	arm_flex_l	arm_add_l	arm_rot_l	elbow_flex_l	pro_sup_l
      0.00000000	      1.24530240	     -2.48764702	     -1.04975403	     -0.91032662	      1.26628450	     -0.07748138	      0.00826815	      2.85377954	     -2.51048712	     11.39495517	      0.19887949	      3.29288476	    -22.64095260	     -6.50609368	     -0.83345657	     -2.47972316	      6.31015492	      9.95563565	      0.17375862	     10.39771231	    -10.84733515	     -6.50609368	     -9.13568893	      2.05889028	     -0.97684946	      6.45052049	     -8.52208166	     14.55020761	     24.49387877	     77.49629729	      0.56268911	     -7.85249683	     15.57755311	     24.48105978	     67.07711016
      0.00166670	     -1.93988090	     -2.30572774	     -0.85689464	     -0.91456620	      1.26447359	     -0.08218087	      4.51725992	      2.82359901	     -1.67771672	     13.06146198	      0.22796552	      6.63917416	    -21.46391301	     -6.53982771	      3.71287774	     -1.62855467	      8.26728277	     11.10025964	      0.19373608	      9.91131526	    -11.22588062	     -6.53982771	     -4.91823757	      2.16426477	     -1.49557930	      5.32880227	     -8.09448684	     12.00018168	     24.29137074	     77.67670866	      0.10037183	     -6.92507214	     12.94459681	     22.79275149	     66.85373684
      0.00333330	     -2.78750685	     -1.83495789	     -1.03714563	     -0.91865766	      1.26366227	     -0.08113019	      5.46922162	      2.37285169	     -1.80971164	     12.34590474	      0.21547669	      7.57177620	    -20.29000528	     -6.97038808	      4.46017336	     -1.16130177	      9.01006004	     10.29896062	      0.17975077	      9.21395338	    -11.80683999	     -6.97038808	     -3.91802259	      1.29847955	     -0.99487858	      4.09467864	     -6.92941037	      4.84204272	     25.71164374	     85.26987427	      0.17253148	     -7.13156981	      9.77537979	     22.65849454	     71.54767477
      0.00500000	     -2.70411415	     -1.58014189	     -0.99179299	     -0.92038089	      1.26402374	     -0.08480970	      5.43126182	      1.99930123	     -1.43955830	     12.14719554	      0.21200856	      8.09913714	    -19.20999385	     -7.03416668	      4.05185900	     -0.74625414	      9.90259901	      9.35455436	      0.16326777	      8.49510779	    -12.61763059	     -7.03416668	     -4.03541326	      0.96467963	     -0.95032653	      3.58399381	     -6.90933563	      5.02161916	     26.55010799	     83.93955537	      0.23309946	     -7.81238021	     11.19474875	     22.66224039	     71.15075287
      0.00666670	     -2.70399847	     -1.46310729	     -0.97016013	     -0.92181047	      1.26152561	     -0.08660270	      5.48113385	      1.88297238	     -0.73595432	     11.98484867	      0.20917507	      8.08782090	    -19.24805106	     -7.19770870	      3.83947977	     -0.53116517	     10.46861705	      8.49090883	      0.14819432	      8.20551326	    -13.10509936	     -7.19770870	     -4.06607287	      0.84854805	     -0.91473014	      3.12843760	     -7.15026576	      6.05333667	     27.44393595	     81.41680000	      0.41671487	     -8.38176712	     13.46571553	     22.55496996	     70.37824341
      0.00833330	     -2.63352259	     -1.36798736	     -0.95695894	     -0.92187206	      1.26507561	     -0.08794222	      5.39831300	      1.75940969	     -0.23820279	     11.82170069	      0.20632760	      8.12238309	    -19.05346873	     -7.25575939	      3.47754894	     -0.36477535	     10.75558391	      7.66938583	      0.13385603	      7.82349498	    -13.40573693	     -7.25575939	     -4.10510995	      0.79536180	     -0.86109442	      2.86312764	     -7.25323254	      6.50465405	     27.68050642	     81.18775010	      0.71715150	     -8.62569178	     14.95463666	     22.19222867	     70.42738016
      0.01000000	     -2.55764393	     -1.29391516	     -0.97013140	     -0.92187594	      1.26798349	     -0.08630803	      5.22998319	      1.67203892	      0.05504077	     11.48344392	      0.20042391	      7.93321892	    -19.10595153	     -7.29374643	      3.09683563	     -0.30552804	     10.93182777	      7.10693951	      0.12403949	      7.60873266	    -13.63632387	     -7.29374643	     -4.20824299	      0.71131176	     -0.81877821	      2.74985263	     -7.25521114	      6.63123378	     27.77580098	     81.98588743	      1.07024152	     -8.87612412	     16.54329115	     21.80199550	     70.78947427
      0.01166670	     -2.35704561	     -1.27500589	     -1.00116036	     -0.92059459	      1.26193095	     -0.08615470	      4.89786764	      1.67168741	      0.29623731	     11.29283285	      0.19709712	      7.67987550	    -19.57106525	     -7.32316767	      2.70940268	     -0.31319970	     10.87146355	      6.78732413	      0.11846115	      7.74278826	    -13.51581899	     -7.32316767	     -4.40157126	      0.65964153	     -0.84746863	      2.67199798	     -7.24542649	      6.72754158	     28.00734447	     81.14472880	      1.15515379	     -8.96696190	     16.52948154	     21.83813821	     70.18072941
      0.01333330	     -2.32589419	     -1.24383727	     -1.00418388	     -0.91882047	      1.26490568	     -0.08666561	      4.69748337	      1.63163289	      0.31208591	     11.04578291	      0.19278528	      7.74986042	    -19.62611068	     -7.34223680	      2.39099259	     -0.31767341	     10.92760836	      6.46896662	      0.11290477	      7.78383453	    -13.60942361	     -7.34223680	     -4.38923245	      0.59929388	     -0.79569722	      2.54767901	     -7.17192699	      6.82318965	     27.95051222	     80.49269755	      1.17901070	     -8.96420730	     16.63384936	     21.70802922	     69.71963459
